<?xml version="1.0" encoding="UTF-8" standalone="no"?>
<svg
   xmlns:dc="http://purl.org/dc/elements/1.1/"
   xmlns:cc="http://creativecommons.org/ns#"
   xmlns:rdf="http://www.w3.org/1999/02/22-rdf-syntax-ns#"
   xmlns:svg="http://www.w3.org/2000/svg"
   xmlns="http://www.w3.org/2000/svg"
   xmlns:sodipodi="http://sodipodi.sourceforge.net/DTD/sodipodi-0.dtd"
   xmlns:inkscape="http://www.inkscape.org/namespaces/inkscape"
   sodipodi:docname="logo.svg"
   inkscape:version="1.0beta2 (2b71d25, 2019-12-03)"
   id="svg8"
   version="1.1"
   viewBox="0 0 36.447273 7.5705733"
   height="7.5705733mm"
   width="36.447273mm">
  <defs
     id="defs2" />
  <sodipodi:namedview
     inkscape:window-maximized="0"
     inkscape:window-y="23"
     inkscape:window-x="0"
     inkscape:window-height="855"
     inkscape:window-width="1440"
     fit-margin-bottom="0"
     fit-margin-right="0"
     fit-margin-left="0"
     fit-margin-top="0"
     showgrid="false"
     inkscape:document-rotation="0"
     inkscape:current-layer="layer1"
     inkscape:document-units="mm"
     inkscape:cy="39.903083"
     inkscape:cx="75.987966"
     inkscape:zoom="2.8"
     inkscape:pageshadow="2"
     inkscape:pageopacity="0.0"
     borderopacity="1.0"
     bordercolor="#666666"
     pagecolor="#ffffff"
     id="base" />
  <metadata
     id="metadata5">
    <rdf:RDF>
      <cc:Work
         rdf:about="">
        <dc:format>image/svg+xml</dc:format>
        <dc:type
           rdf:resource="http://purl.org/dc/dcmitype/StillImage" />
        <dc:title></dc:title>
      </cc:Work>
    </rdf:RDF>
  </metadata>
  <g
     transform="translate(-46.769379,-140.73562)"
     id="layer1"
     inkscape:groupmode="layer"
     inkscape:label="Layer 1">
    <text
       id="text835"
       y="148.92261"
       x="15.119047"
       style="font-style:normal;font-weight:normal;font-size:10.5833px;line-height:1.25;font-family:sans-serif;fill:#000000;fill-opacity:1;stroke:none;stroke-width:0.264583"
       xml:space="preserve"><tspan
         style="stroke-width:0.264583"
         y="148.92261"
         x="15.119047"
         id="tspan833"
         sodipodi:role="line" /></text>
    <g
       style="font-style:normal;font-weight:normal;font-size:10.5833px;line-height:1.25;font-family:sans-serif;fill:#000000;fill-opacity:1;stroke:none;stroke-width:0.264583"
       id="text839"
       aria-label="CΔMPGИ">
      <path
         id="path893"
         style="font-style:normal;font-variant:normal;font-weight:normal;font-stretch:normal;font-size:10.5833px;font-family:'Andale Mono';-inkscape-font-specification:'Andale Mono Normal';font-variant-ligatures:normal;font-variant-caps:normal;font-variant-numeric:normal;font-variant-east-asian:normal;stroke-width:0.264583"
         d="m 51.647619,147.71192 q -0.857826,0.59428 -1.989537,0.59428 -1.415929,0 -2.1549,-0.97152 -0.733803,-0.97151 -0.733803,-2.81119 0,-1.77766 0.713133,-2.78018 0.713132,-1.00769 2.17557,-1.00769 0.527098,0 1.043861,0.13436 0.516763,0.13436 0.831988,0.35657 l -0.279052,0.66662 q -0.728635,-0.41341 -1.596797,-0.41341 -1.007687,0 -1.498611,0.73381 -0.490925,0.72863 -0.490925,2.30992 0,3.03857 1.989536,3.03857 0.842324,0 1.725988,-0.51676 z" />
      <path
         id="path895"
         style="font-style:normal;font-variant:normal;font-weight:normal;font-stretch:normal;font-size:10.5833px;font-family:'Andale Mono';-inkscape-font-specification:'Andale Mono Normal';font-variant-ligatures:normal;font-variant-caps:normal;font-variant-numeric:normal;font-variant-east-asian:normal;stroke-width:0.264583"
         d="m 58.536065,148.16667 h -5.782574 l 2.382276,-7.29152 h 1.018022 z m -1.126542,-0.73897 -1.767329,-5.5707 -1.777663,5.5707 z" />
      <path
         id="path897"
         style="font-style:normal;font-variant:normal;font-weight:normal;font-stretch:normal;font-size:10.5833px;font-family:'Andale Mono';-inkscape-font-specification:'Andale Mono Normal';font-variant-ligatures:normal;font-variant-caps:normal;font-variant-numeric:normal;font-variant-east-asian:normal;stroke-width:0.264583"
         d="M 64.328975,148.16667 H 63.51249 v -6.25283 l -1.100705,2.99206 h -0.800982 l -1.100704,-2.99206 v 6.25283 h -0.816485 v -7.29152 h 1.100704 l 1.21956,3.32278 1.214392,-3.32278 h 1.100705 z" />
      <path
         id="path899"
         style="font-style:normal;font-variant:normal;font-weight:normal;font-stretch:normal;font-size:10.5833px;font-family:'Andale Mono';-inkscape-font-specification:'Andale Mono Normal';font-variant-ligatures:normal;font-variant-caps:normal;font-variant-numeric:normal;font-variant-east-asian:normal;stroke-width:0.264583"
         d="m 66.47354,140.87515 h 1.85001 q 1.049028,0 1.679479,0.5271 0.63045,0.5271 0.63045,1.4521 0,0.93017 -0.63045,1.48828 -0.625283,0.55293 -1.643306,0.55293 H 67.32103 v 3.27111 h -0.84749 z m 0.84749,3.28144 h 0.919838 q 1.493444,0 1.493444,-1.25056 0,-0.57878 -0.408242,-0.93534 -0.403075,-0.35657 -1.043861,-0.35657 H 67.32103 Z" />
      <path
         id="path901"
         style="font-style:normal;font-variant:normal;font-weight:normal;font-stretch:normal;font-size:10.5833px;font-family:'Andale Mono';-inkscape-font-specification:'Andale Mono Normal';font-variant-ligatures:normal;font-variant-caps:normal;font-variant-numeric:normal;font-variant-east-asian:normal;stroke-width:0.264583"
         d="m 77.020666,147.64991 q -0.893999,0.65629 -1.979201,0.65629 -1.421097,0 -2.1549,-0.96118 -0.733803,-0.96635 -0.733803,-2.82153 0,-1.79316 0.707965,-2.79051 0.713132,-0.99736 2.180738,-0.99736 0.527098,0 1.043861,0.13436 0.516763,0.13436 0.831988,0.35657 l -0.279052,0.66662 q -0.728635,-0.41341 -1.596797,-0.41341 -1.002519,0 -1.498611,0.73381 -0.490925,0.7338 -0.490925,2.30992 0,3.03857 1.989536,3.03857 0.749306,0 1.131711,-0.31523 v -1.79833 h -1.312578 v -0.7338 h 2.160068 z" />
      <path
         id="path903"
         style="font-style:normal;font-variant:normal;font-weight:normal;font-stretch:normal;font-size:10.5833px;font-family:'Andale Mono';-inkscape-font-specification:'Andale Mono Normal';font-variant-ligatures:normal;font-variant-caps:normal;font-variant-numeric:normal;font-variant-east-asian:normal;stroke-width:0.264583"
         d="m 83.216651,148.16667 h -0.811317 v -5.91693 l -2.645825,5.91693 h -0.945676 v -7.29152 h 0.80615 v 5.86526 l 2.65616,-5.86526 h 0.940508 z" />
    </g>
  </g>
</svg>
